<svg width="151" height="26" viewBox="0 0 151 26" fill="none" xmlns="http://www.w3.org/2000/svg">
<path d="M6.44 19.168C5.272 19.168 4.216 18.968 3.272 18.568C2.344 18.168 1.608 17.592 1.064 16.84C0.52 16.088 0.24 15.2 0.224 14.176H3.824C3.872 14.864 4.112 15.408 4.544 15.808C4.992 16.208 5.6 16.408 6.368 16.408C7.152 16.408 7.768 16.224 8.216 15.856C8.664 15.472 8.888 14.976 8.888 14.368C8.888 13.872 8.736 13.464 8.432 13.144C8.128 12.824 7.744 12.576 7.28 12.4C6.832 12.208 6.208 12 5.408 11.776C4.32 11.456 3.432 11.144 2.744 10.84C2.072 10.52 1.488 10.048 0.992 9.424C0.512 8.784 0.272 7.936 0.272 6.88C0.272 5.888 0.52 5.024 1.016 4.288C1.512 3.552 2.208 2.992 3.104 2.608C4 2.208 5.024 2.008 6.176 2.008C7.904 2.008 9.304 2.432 10.376 3.28C11.464 4.112 12.064 5.28 12.176 6.784H8.48C8.448 6.208 8.2 5.736 7.736 5.368C7.288 4.984 6.688 4.792 5.936 4.792C5.28 4.792 4.752 4.96 4.352 5.296C3.968 5.632 3.776 6.12 3.776 6.76C3.776 7.208 3.92 7.584 4.208 7.888C4.512 8.176 4.88 8.416 5.312 8.608C5.76 8.784 6.384 8.992 7.184 9.232C8.272 9.552 9.16 9.872 9.848 10.192C10.536 10.512 11.128 10.992 11.624 11.632C12.12 12.272 12.368 13.112 12.368 14.152C12.368 15.048 12.136 15.88 11.672 16.648C11.208 17.416 10.528 18.032 9.632 18.496C8.736 18.944 7.672 19.168 6.44 19.168ZM14.417 12.304C14.417 10.96 14.681 9.768 15.209 8.728C15.753 7.688 16.481 6.888 17.393 6.328C18.321 5.768 19.353 5.488 20.489 5.488C21.481 5.488 22.345 5.688 23.081 6.088C23.833 6.488 24.433 6.992 24.881 7.6V5.704H28.265V19H24.881V17.056C24.449 17.68 23.849 18.2 23.081 18.616C22.329 19.016 21.457 19.216 20.465 19.216C19.345 19.216 18.321 18.928 17.393 18.352C16.481 17.776 15.753 16.968 15.209 15.928C14.681 14.872 14.417 13.664 14.417 12.304ZM24.881 12.352C24.881 11.536 24.721 10.84 24.401 10.264C24.081 9.672 23.649 9.224 23.105 8.92C22.561 8.6 21.977 8.44 21.353 8.44C20.729 8.44 20.153 8.592 19.625 8.896C19.097 9.2 18.665 9.648 18.329 10.24C18.009 10.816 17.849 11.504 17.849 12.304C17.849 13.104 18.009 13.808 18.329 14.416C18.665 15.008 19.097 15.464 19.625 15.784C20.169 16.104 20.745 16.264 21.353 16.264C21.977 16.264 22.561 16.112 23.105 15.808C23.649 15.488 24.081 15.04 24.401 14.464C24.721 13.872 24.881 13.168 24.881 12.352ZM48.0586 5.512C49.6906 5.512 51.0026 6.016 51.9946 7.024C53.0026 8.016 53.5066 9.408 53.5066 11.2V19H50.1466V11.656C50.1466 10.616 49.8826 9.824 49.3546 9.28C48.8266 8.72 48.1066 8.44 47.1946 8.44C46.2826 8.44 45.5546 8.72 45.0106 9.28C44.4826 9.824 44.2186 10.616 44.2186 11.656V19H40.8586V11.656C40.8586 10.616 40.5946 9.824 40.0666 9.28C39.5386 8.72 38.8186 8.44 37.9066 8.44C36.9786 8.44 36.2426 8.72 35.6986 9.28C35.1706 9.824 34.9066 10.616 34.9066 11.656V19H31.5466V5.704H34.9066V7.312C35.3386 6.752 35.8906 6.312 36.5626 5.992C37.2506 5.672 38.0026 5.512 38.8186 5.512C39.8586 5.512 40.7866 5.736 41.6026 6.184C42.4186 6.616 43.0506 7.24 43.4986 8.056C43.9306 7.288 44.5546 6.672 45.3706 6.208C46.2026 5.744 47.0986 5.512 48.0586 5.512ZM60.0551 7.624C60.4871 7.016 61.0791 6.512 61.8311 6.112C62.5991 5.696 63.4711 5.488 64.4471 5.488C65.5831 5.488 66.6071 5.768 67.5191 6.328C68.4471 6.888 69.1751 7.688 69.7031 8.728C70.2471 9.752 70.5191 10.944 70.5191 12.304C70.5191 13.664 70.2471 14.872 69.7031 15.928C69.1751 16.968 68.4471 17.776 67.5191 18.352C66.6071 18.928 65.5831 19.216 64.4471 19.216C63.4711 19.216 62.6071 19.016 61.8551 18.616C61.1191 18.216 60.5191 17.712 60.0551 17.104V25.336H56.6951V5.704H60.0551V7.624ZM67.0871 12.304C67.0871 11.504 66.9191 10.816 66.5831 10.24C66.2631 9.648 65.8311 9.2 65.2871 8.896C64.7591 8.592 64.1831 8.44 63.5591 8.44C62.9511 8.44 62.3751 8.6 61.8311 8.92C61.3031 9.224 60.8711 9.672 60.5351 10.264C60.2151 10.856 60.0551 11.552 60.0551 12.352C60.0551 13.152 60.2151 13.848 60.5351 14.44C60.8711 15.032 61.3031 15.488 61.8311 15.808C62.3751 16.112 62.9511 16.264 63.5591 16.264C64.1831 16.264 64.7591 16.104 65.2871 15.784C65.8311 15.464 66.2631 15.008 66.5831 14.416C66.9191 13.824 67.0871 13.12 67.0871 12.304ZM72.0967 12.304C72.0967 10.96 72.3607 9.768 72.8887 8.728C73.4327 7.688 74.1607 6.888 75.0727 6.328C76.0007 5.768 77.0327 5.488 78.1687 5.488C79.1607 5.488 80.0247 5.688 80.7607 6.088C81.5127 6.488 82.1127 6.992 82.5607 7.6V5.704H85.9447V19H82.5607V17.056C82.1287 17.68 81.5287 18.2 80.7607 18.616C80.0087 19.016 79.1367 19.216 78.1447 19.216C77.0247 19.216 76.0007 18.928 75.0727 18.352C74.1607 17.776 73.4327 16.968 72.8887 15.928C72.3607 14.872 72.0967 13.664 72.0967 12.304ZM82.5607 12.352C82.5607 11.536 82.4007 10.84 82.0807 10.264C81.7607 9.672 81.3287 9.224 80.7847 8.92C80.2407 8.6 79.6567 8.44 79.0327 8.44C78.4087 8.44 77.8327 8.592 77.3047 8.896C76.7767 9.2 76.3447 9.648 76.0087 10.24C75.6887 10.816 75.5287 11.504 75.5287 12.304C75.5287 13.104 75.6887 13.808 76.0087 14.416C76.3447 15.008 76.7767 15.464 77.3047 15.784C77.8487 16.104 78.4247 16.264 79.0327 16.264C79.6567 16.264 80.2407 16.112 80.7847 15.808C81.3287 15.488 81.7607 15.04 82.0807 14.464C82.4007 13.872 82.5607 13.168 82.5607 12.352ZM96.7143 5.512C97.7223 5.512 98.6183 5.736 99.4023 6.184C100.186 6.616 100.794 7.264 101.226 8.128C101.674 8.976 101.898 10 101.898 11.2V19H98.5383V11.656C98.5383 10.6 98.2743 9.792 97.7463 9.232C97.2183 8.656 96.4983 8.368 95.5863 8.368C94.6583 8.368 93.9223 8.656 93.3783 9.232C92.8503 9.792 92.5863 10.6 92.5863 11.656V19H89.2263V1.24H92.5863V7.36C93.0183 6.784 93.5943 6.336 94.3143 6.016C95.0343 5.68 95.8343 5.512 96.7143 5.512Z" fill="#064635"/>
<path d="M112.63 19L107.47 13.192V19H105.286V1.24H107.47V11.68L112.534 5.848H115.582L109.39 12.4L115.606 19H112.63ZM118.765 3.712C118.349 3.712 117.997 3.568 117.709 3.28C117.421 2.992 117.277 2.64 117.277 2.224C117.277 1.808 117.421 1.456 117.709 1.168C117.997 0.879999 118.349 0.735999 118.765 0.735999C119.165 0.735999 119.501 0.879999 119.773 1.168C120.061 1.456 120.205 1.808 120.205 2.224C120.205 2.64 120.061 2.992 119.773 3.28C119.501 3.568 119.165 3.712 118.765 3.712ZM119.821 5.848V19H117.637V5.848H119.821ZM126.207 7.648V15.4C126.207 16.04 126.343 16.496 126.615 16.768C126.887 17.024 127.359 17.152 128.031 17.152H129.639V19H127.671C126.455 19 125.543 18.72 124.935 18.16C124.327 17.6 124.023 16.68 124.023 15.4V7.648H122.319V5.848H124.023V2.536H126.207V5.848H129.639V7.648H126.207ZM131.47 12.376C131.47 11.032 131.742 9.856 132.286 8.848C132.83 7.824 133.574 7.032 134.518 6.472C135.478 5.912 136.542 5.632 137.71 5.632C138.862 5.632 139.862 5.88 140.71 6.376C141.558 6.872 142.19 7.496 142.606 8.248V5.848H144.814V19H142.606V16.552C142.174 17.32 141.526 17.96 140.662 18.472C139.814 18.968 138.822 19.216 137.686 19.216C136.518 19.216 135.462 18.928 134.518 18.352C133.574 17.776 132.83 16.968 132.286 15.928C131.742 14.888 131.47 13.704 131.47 12.376ZM142.606 12.4C142.606 11.408 142.406 10.544 142.006 9.808C141.606 9.072 141.062 8.512 140.374 8.128C139.702 7.728 138.958 7.528 138.142 7.528C137.326 7.528 136.582 7.72 135.91 8.104C135.238 8.488 134.702 9.048 134.302 9.784C133.902 10.52 133.702 11.384 133.702 12.376C133.702 13.384 133.902 14.264 134.302 15.016C134.702 15.752 135.238 16.32 135.91 16.72C136.582 17.104 137.326 17.296 138.142 17.296C138.958 17.296 139.702 17.104 140.374 16.72C141.062 16.32 141.606 15.752 142.006 15.016C142.406 14.264 142.606 13.392 142.606 12.4ZM149.2 19.144C148.784 19.144 148.432 19 148.144 18.712C147.856 18.424 147.712 18.072 147.712 17.656C147.712 17.24 147.856 16.888 148.144 16.6C148.432 16.312 148.784 16.168 149.2 16.168C149.6 16.168 149.936 16.312 150.208 16.6C150.496 16.888 150.64 17.24 150.64 17.656C150.64 18.072 150.496 18.424 150.208 18.712C149.936 19 149.6 19.144 149.2 19.144Z" fill="#519259"/>
</svg>
